solid OpenSCAD_Model
  facet normal 1 -0 0
    outer loop
      vertex 17 -30.05 13.8
      vertex 17 -27.55 11.81
      vertex 17 -27.55 13.8
    endloop
  endfacet
  facet normal 1 0 0
    outer loop
      vertex 17 -27.55 11.81
      vertex 17 -30.05 13.8
      vertex 17 -30.05 11.81
    endloop
  endfacet
  facet normal -1 0 0
    outer loop
      vertex 27 -30.05 11.81
      vertex 27 -27.55 13.8
      vertex 27 -27.55 11.81
    endloop
  endfacet
  facet normal -1 -0 0
    outer loop
      vertex 27 -27.55 13.8
      vertex 27 -30.05 11.81
      vertex 27 -30.05 13.8
    endloop
  endfacet
  facet normal -0 0 1
    outer loop
      vertex 17 -27.55 11.81
      vertex 27 -30.05 11.81
      vertex 27 -27.55 11.81
    endloop
  endfacet
  facet normal 0 0 1
    outer loop
      vertex 27 -30.05 11.81
      vertex 17 -27.55 11.81
      vertex 17 -30.05 11.81
    endloop
  endfacet
  facet normal 1 -0 0
    outer loop
      vertex 14 -28.705 6.9
      vertex 14 -27.55 5.3
      vertex 14 -27.55 6.9
    endloop
  endfacet
  facet normal 1 0 0
    outer loop
      vertex 14 -27.55 5.3
      vertex 14 -28.705 6.9
      vertex 14 -28.705 5.3
    endloop
  endfacet
  facet normal 0 0 -1
    outer loop
      vertex 14 -28.705 6.9
      vertex 30 -27.55 6.9
      vertex 30 -28.705 6.9
    endloop
  endfacet
  facet normal -0 0 -1
    outer loop
      vertex 30 -27.55 6.9
      vertex 14 -28.705 6.9
      vertex 14 -27.55 6.9
    endloop
  endfacet
  facet normal -1 0 0
    outer loop
      vertex 30 -28.705 5.3
      vertex 30 -27.55 6.9
      vertex 30 -27.55 5.3
    endloop
  endfacet
  facet normal -1 -0 0
    outer loop
      vertex 30 -27.55 6.9
      vertex 30 -28.705 5.3
      vertex 30 -28.705 6.9
    endloop
  endfacet
  facet normal -0 0 1
    outer loop
      vertex 14 -27.55 5.3
      vertex 30 -28.705 5.3
      vertex 30 -27.55 5.3
    endloop
  endfacet
  facet normal 0 0 1
    outer loop
      vertex 30 -28.705 5.3
      vertex 14 -27.55 5.3
      vertex 14 -28.705 5.3
    endloop
  endfacet
  facet normal 0 1 -0
    outer loop
      vertex 30 -28.705 5.3
      vertex 14 -28.705 6.9
      vertex 30 -28.705 6.9
    endloop
  endfacet
  facet normal 0 1 0
    outer loop
      vertex 14 -28.705 6.9
      vertex 30 -28.705 5.3
      vertex 14 -28.705 5.3
    endloop
  endfacet
  facet normal 0 -1 0
    outer loop
      vertex 5 -30.05 13.8
      vertex 17 -30.05 11.81
      vertex 17 -30.05 13.8
    endloop
  endfacet
  facet normal 0 -1 -0
    outer loop
      vertex 17 -30.05 11.81
      vertex 5 -30.05 0.799999
      vertex 27 -30.05 11.81
    endloop
  endfacet
  facet normal 0 -1 0
    outer loop
      vertex 5 -30.05 0.799999
      vertex 17 -30.05 11.81
      vertex 5 -30.05 13.8
    endloop
  endfacet
  facet normal 0 -1 0
    outer loop
      vertex 27 -30.05 11.81
      vertex 39 -30.05 13.8
      vertex 27 -30.05 13.8
    endloop
  endfacet
  facet normal 0 -1 0
    outer loop
      vertex 39 -30.05 0.799999
      vertex 27 -30.05 11.81
      vertex 5 -30.05 0.799999
    endloop
  endfacet
  facet normal 0 -1 0
    outer loop
      vertex 27 -30.05 11.81
      vertex 39 -30.05 0.799999
      vertex 39 -30.05 13.8
    endloop
  endfacet
  facet normal -0 0 1
    outer loop
      vertex 5 -27.55 13.8
      vertex 17 -30.05 13.8
      vertex 17 -27.55 13.8
    endloop
  endfacet
  facet normal 0 0 1
    outer loop
      vertex 17 -30.05 13.8
      vertex 5 -27.55 13.8
      vertex 5 -30.05 13.8
    endloop
  endfacet
  facet normal -0 0 1
    outer loop
      vertex 27 -27.55 13.8
      vertex 39 -30.05 13.8
      vertex 39 -27.55 13.8
    endloop
  endfacet
  facet normal 0 0 1
    outer loop
      vertex 39 -30.05 13.8
      vertex 27 -27.55 13.8
      vertex 27 -30.05 13.8
    endloop
  endfacet
  facet normal 0 1 0
    outer loop
      vertex 39 -27.55 13.8
      vertex 27 -27.55 11.81
      vertex 27 -27.55 13.8
    endloop
  endfacet
  facet normal 0 1 0
    outer loop
      vertex 27 -27.55 11.81
      vertex 30 -27.55 6.9
      vertex 17 -27.55 11.81
    endloop
  endfacet
  facet normal 0 1 0
    outer loop
      vertex 39 -27.55 13.8
      vertex 30 -27.55 6.9
      vertex 27 -27.55 11.81
    endloop
  endfacet
  facet normal 0 1 -0
    outer loop
      vertex 39 -27.55 1.6
      vertex 30 -27.55 6.9
      vertex 39 -27.55 13.8
    endloop
  endfacet
  facet normal 0 1 0
    outer loop
      vertex 30 -27.55 5.3
      vertex 39 -27.55 1.6
      vertex 14 -27.55 5.3
    endloop
  endfacet
  facet normal 0 1 0
    outer loop
      vertex 30 -27.55 6.9
      vertex 39 -27.55 1.6
      vertex 30 -27.55 5.3
    endloop
  endfacet
  facet normal 0 1 -0
    outer loop
      vertex 17 -27.55 11.81
      vertex 5 -27.55 13.8
      vertex 17 -27.55 13.8
    endloop
  endfacet
  facet normal 0 1 0
    outer loop
      vertex 14 -27.55 6.9
      vertex 17 -27.55 11.81
      vertex 30 -27.55 6.9
    endloop
  endfacet
  facet normal 0 1 0
    outer loop
      vertex 17 -27.55 11.81
      vertex 14 -27.55 6.9
      vertex 5 -27.55 13.8
    endloop
  endfacet
  facet normal 0 1 0
    outer loop
      vertex 5 -27.55 1.6
      vertex 14 -27.55 6.9
      vertex 14 -27.55 5.3
    endloop
  endfacet
  facet normal 0 1 0
    outer loop
      vertex 14 -27.55 6.9
      vertex 5 -27.55 1.6
      vertex 5 -27.55 13.8
    endloop
  endfacet
  facet normal 0 1 0
    outer loop
      vertex 5 -27.55 1.6
      vertex 14 -27.55 5.3
      vertex 39 -27.55 1.6
    endloop
  endfacet
  facet normal 0 0 1
    outer loop
      vertex 34.8952 -24.398 1.6
      vertex 39 -24.3 1.6
      vertex 34.9 -24.3 1.6
    endloop
  endfacet
  facet normal 0 0 1
    outer loop
      vertex 34.8808 -24.4951 1.6
      vertex 39 -24.3 1.6
      vertex 34.8952 -24.398 1.6
    endloop
  endfacet
  facet normal 0 0 1
    outer loop
      vertex 34.8569 -24.5903 1.6
      vertex 39 -24.3 1.6
      vertex 34.8808 -24.4951 1.6
    endloop
  endfacet
  facet normal 0 0 1
    outer loop
      vertex 34.8239 -24.6827 1.6
      vertex 39 -24.3 1.6
      vertex 34.8569 -24.5903 1.6
    endloop
  endfacet
  facet normal 0 0 1
    outer loop
      vertex 34.7819 -24.7714 1.6
      vertex 39 -24.3 1.6
      vertex 34.8239 -24.6827 1.6
    endloop
  endfacet
  facet normal 0 0 1
    outer loop
      vertex 39 -24.3 1.6
      vertex 34.7819 -24.7714 1.6
      vertex 39 -27.55 1.6
    endloop
  endfacet
  facet normal -0 0 1
    outer loop
      vertex 34.7315 -24.8556 1.6
      vertex 39 -27.55 1.6
      vertex 34.7819 -24.7714 1.6
    endloop
  endfacet
  facet normal -0 0 1
    outer loop
      vertex 34.673 -24.9344 1.6
      vertex 39 -27.55 1.6
      vertex 34.7315 -24.8556 1.6
    endloop
  endfacet
  facet normal -0 0 1
    outer loop
      vertex 34.6071 -25.0071 1.6
      vertex 39 -27.55 1.6
      vertex 34.673 -24.9344 1.6
    endloop
  endfacet
  facet normal -0 0 1
    outer loop
      vertex 34.5344 -25.073 1.6
      vertex 39 -27.55 1.6
      vertex 34.6071 -25.0071 1.6
    endloop
  endfacet
  facet normal -0 0 1
    outer loop
      vertex 34.4556 -25.1315 1.6
      vertex 39 -27.55 1.6
      vertex 34.5344 -25.073 1.6
    endloop
  endfacet
  facet normal -0 0 1
    outer loop
      vertex 34.3714 -25.1819 1.6
      vertex 39 -27.55 1.6
      vertex 34.4556 -25.1315 1.6
    endloop
  endfacet
  facet normal -0 0 1
    outer loop
      vertex 34.2827 -25.2239 1.6
      vertex 39 -27.55 1.6
      vertex 34.3714 -25.1819 1.6
    endloop
  endfacet
  facet normal -0 0 1
    outer loop
      vertex 34.1903 -25.2569 1.6
      vertex 39 -27.55 1.6
      vertex 34.2827 -25.2239 1.6
    endloop
  endfacet
  facet normal -0 0 1
    outer loop
      vertex 34.0951 -25.2808 1.6
      vertex 39 -27.55 1.6
      vertex 34.1903 -25.2569 1.6
    endloop
  endfacet
  facet normal -0 0 1
    outer loop
      vertex 33.998 -25.2952 1.6
      vertex 39 -27.55 1.6
      vertex 34.0951 -25.2808 1.6
    endloop
  endfacet
  facet normal -0 0 1
    outer loop
      vertex 33.9 -25.3 1.6
      vertex 39 -27.55 1.6
      vertex 33.998 -25.2952 1.6
    endloop
  endfacet
  facet normal 0 0 1
    outer loop
      vertex 5 -27.55 1.6
      vertex 33.9 -25.3 1.6
      vertex 5 -25.3 1.6
    endloop
  endfacet
  facet normal 0 0 1
    outer loop
      vertex 33.9 -25.3 1.6
      vertex 5 -27.55 1.6
      vertex 39 -27.55 1.6
    endloop
  endfacet
  facet normal -0.243494 0.969902 0
    outer loop
      vertex 34.1903 -25.2569 0.799999
      vertex 34.0951 -25.2808 1.6
      vertex 34.1903 -25.2569 1.6
    endloop
  endfacet
  facet normal -0.243494 0.969902 0
    outer loop
      vertex 34.0951 -25.2808 1.6
      vertex 34.1903 -25.2569 0.799999
      vertex 34.0951 -25.2808 0.799999
    endloop
  endfacet
  facet normal -0.146696 0.989182 0
    outer loop
      vertex 34.0951 -25.2808 0.799999
      vertex 33.998 -25.2952 1.6
      vertex 34.0951 -25.2808 1.6
    endloop
  endfacet
  facet normal -0.146696 0.989182 0
    outer loop
      vertex 33.998 -25.2952 1.6
      vertex 34.0951 -25.2808 0.799999
      vertex 33.998 -25.2952 0.799999
    endloop
  endfacet
  facet normal 0 1 -0
    outer loop
      vertex 33.9 -25.3 0.799999
      vertex 5 -25.3 1.6
      vertex 33.9 -25.3 1.6
    endloop
  endfacet
  facet normal 0 1 0
    outer loop
      vertex 5 -25.3 1.6
      vertex 33.9 -25.3 0.799999
      vertex 5 -25.3 0.799999
    endloop
  endfacet
  facet normal -0.969902 0.243494 0
    outer loop
      vertex 34.8569 -24.5903 0.799999
      vertex 34.8808 -24.4951 1.6
      vertex 34.8808 -24.4951 0.799999
    endloop
  endfacet
  facet normal -0.969902 0.243494 0
    outer loop
      vertex 34.8808 -24.4951 1.6
      vertex 34.8569 -24.5903 0.799999
      vertex 34.8569 -24.5903 1.6
    endloop
  endfacet
  facet normal -0.0489209 0.998803 0
    outer loop
      vertex 33.998 -25.2952 0.799999
      vertex 33.9 -25.3 1.6
      vertex 33.998 -25.2952 1.6
    endloop
  endfacet
  facet normal -0.0489209 0.998803 0
    outer loop
      vertex 33.9 -25.3 1.6
      vertex 33.998 -25.2952 0.799999
      vertex 33.9 -25.3 0.799999
    endloop
  endfacet
  facet normal -0.989182 0.146696 0
    outer loop
      vertex 34.8808 -24.4951 0.799999
      vertex 34.8952 -24.398 1.6
      vertex 34.8952 -24.398 0.799999
    endloop
  endfacet
  facet normal -0.989182 0.146696 0
    outer loop
      vertex 34.8952 -24.398 1.6
      vertex 34.8808 -24.4951 0.799999
      vertex 34.8808 -24.4951 1.6
    endloop
  endfacet
  facet normal -0.802925 0.59608 0
    outer loop
      vertex 34.673 -24.9344 0.799999
      vertex 34.7315 -24.8556 1.6
      vertex 34.7315 -24.8556 0.799999
    endloop
  endfacet
  facet normal -0.802925 0.59608 0
    outer loop
      vertex 34.7315 -24.8556 1.6
      vertex 34.673 -24.9344 0.799999
      vertex 34.673 -24.9344 1.6
    endloop
  endfacet
  facet normal -0.59608 0.802925 0
    outer loop
      vertex 34.5344 -25.073 0.799999
      vertex 34.4556 -25.1315 1.6
      vertex 34.5344 -25.073 1.6
    endloop
  endfacet
  facet normal -0.59608 0.802925 0
    outer loop
      vertex 34.4556 -25.1315 1.6
      vertex 34.5344 -25.073 0.799999
      vertex 34.4556 -25.1315 0.799999
    endloop
  endfacet
  facet normal -0.998803 0.0489209 0
    outer loop
      vertex 34.8952 -24.398 0.799999
      vertex 34.9 -24.3 1.6
      vertex 34.9 -24.3 0.799999
    endloop
  endfacet
  facet normal -0.998803 0.0489209 0
    outer loop
      vertex 34.9 -24.3 1.6
      vertex 34.8952 -24.398 0.799999
      vertex 34.8952 -24.398 1.6
    endloop
  endfacet
  facet normal -0.9038 0.427955 0
    outer loop
      vertex 34.7819 -24.7714 0.799999
      vertex 34.8239 -24.6827 1.6
      vertex 34.8239 -24.6827 0.799999
    endloop
  endfacet
  facet normal -0.9038 0.427955 0
    outer loop
      vertex 34.8239 -24.6827 1.6
      vertex 34.7819 -24.7714 0.799999
      vertex 34.7819 -24.7714 1.6
    endloop
  endfacet
  facet normal -0.513596 0.858032 0
    outer loop
      vertex 34.4556 -25.1315 0.799999
      vertex 34.3714 -25.1819 1.6
      vertex 34.4556 -25.1315 1.6
    endloop
  endfacet
  facet normal -0.513596 0.858032 0
    outer loop
      vertex 34.3714 -25.1819 1.6
      vertex 34.4556 -25.1315 0.799999
      vertex 34.3714 -25.1819 0.799999
    endloop
  endfacet
  facet normal -0.336336 0.941742 0
    outer loop
      vertex 34.2827 -25.2239 0.799999
      vertex 34.1903 -25.2569 1.6
      vertex 34.2827 -25.2239 1.6
    endloop
  endfacet
  facet normal -0.336336 0.941742 0
    outer loop
      vertex 34.1903 -25.2569 1.6
      vertex 34.2827 -25.2239 0.799999
      vertex 34.1903 -25.2569 0.799999
    endloop
  endfacet
  facet normal -0.671607 0.740908 0
    outer loop
      vertex 34.6071 -25.0071 0.799999
      vertex 34.5344 -25.073 1.6
      vertex 34.6071 -25.0071 1.6
    endloop
  endfacet
  facet normal -0.671607 0.740908 0
    outer loop
      vertex 34.5344 -25.073 1.6
      vertex 34.6071 -25.0071 0.799999
      vertex 34.5344 -25.073 0.799999
    endloop
  endfacet
  facet normal -0.941742 0.336336 0
    outer loop
      vertex 34.8239 -24.6827 0.799999
      vertex 34.8569 -24.5903 1.6
      vertex 34.8569 -24.5903 0.799999
    endloop
  endfacet
  facet normal -0.941742 0.336336 0
    outer loop
      vertex 34.8569 -24.5903 1.6
      vertex 34.8239 -24.6827 0.799999
      vertex 34.8239 -24.6827 1.6
    endloop
  endfacet
  facet normal -0.858032 0.513596 0
    outer loop
      vertex 34.7315 -24.8556 0.799999
      vertex 34.7819 -24.7714 1.6
      vertex 34.7819 -24.7714 0.799999
    endloop
  endfacet
  facet normal -0.858032 0.513596 0
    outer loop
      vertex 34.7819 -24.7714 1.6
      vertex 34.7315 -24.8556 0.799999
      vertex 34.7315 -24.8556 1.6
    endloop
  endfacet
  facet normal -0.427955 0.9038 0
    outer loop
      vertex 34.3714 -25.1819 0.799999
      vertex 34.2827 -25.2239 1.6
      vertex 34.3714 -25.1819 1.6
    endloop
  endfacet
  facet normal -0.427955 0.9038 0
    outer loop
      vertex 34.2827 -25.2239 1.6
      vertex 34.3714 -25.1819 0.799999
      vertex 34.2827 -25.2239 0.799999
    endloop
  endfacet
  facet normal -0.740908 0.671607 0
    outer loop
      vertex 34.6071 -25.0071 0.799999
      vertex 34.673 -24.9344 1.6
      vertex 34.673 -24.9344 0.799999
    endloop
  endfacet
  facet normal -0.740908 0.671607 0
    outer loop
      vertex 34.673 -24.9344 1.6
      vertex 34.6071 -25.0071 0.799999
      vertex 34.6071 -25.0071 1.6
    endloop
  endfacet
  facet normal -1 0 0
    outer loop
      vertex 5 -25.3 0.799999
      vertex 5 -27.55 1.6
      vertex 5 -25.3 1.6
    endloop
  endfacet
  facet normal -1 0 0
    outer loop
      vertex 5 -30.05 0.799999
      vertex 5 -27.55 1.6
      vertex 5 -25.3 0.799999
    endloop
  endfacet
  facet normal -1 0 0
    outer loop
      vertex 5 -30.05 13.8
      vertex 5 -27.55 1.6
      vertex 5 -30.05 0.799999
    endloop
  endfacet
  facet normal -1 0 0
    outer loop
      vertex 5 -27.55 1.6
      vertex 5 -30.05 13.8
      vertex 5 -27.55 13.8
    endloop
  endfacet
  facet normal 1 0 0
    outer loop
      vertex 39 -27.55 13.8
      vertex 39 -30.05 13.8
      vertex 39 -27.55 1.6
    endloop
  endfacet
  facet normal 1 -0 0
    outer loop
      vertex 39 -27.55 1.6
      vertex 39 -24.3 0.799999
      vertex 39 -24.3 1.6
    endloop
  endfacet
  facet normal 1 0 0
    outer loop
      vertex 39 -27.55 1.6
      vertex 39 -30.05 0.799999
      vertex 39 -24.3 0.799999
    endloop
  endfacet
  facet normal 1 0 0
    outer loop
      vertex 39 -30.05 0.799999
      vertex 39 -27.55 1.6
      vertex 39 -30.05 13.8
    endloop
  endfacet
  facet normal 0 0 -1
    outer loop
      vertex 34.673 -24.9344 0.799999
      vertex 39 -24.3 0.799999
      vertex 39 -30.05 0.799999
    endloop
  endfacet
  facet normal -0 0 -1
    outer loop
      vertex 39 -24.3 0.799999
      vertex 34.8952 -24.398 0.799999
      vertex 34.9 -24.3 0.799999
    endloop
  endfacet
  facet normal 0 0 -1
    outer loop
      vertex 39 -24.3 0.799999
      vertex 34.8808 -24.4951 0.799999
      vertex 34.8952 -24.398 0.799999
    endloop
  endfacet
  facet normal 0 0 -1
    outer loop
      vertex 39 -24.3 0.799999
      vertex 34.8569 -24.5903 0.799999
      vertex 34.8808 -24.4951 0.799999
    endloop
  endfacet
  facet normal 0 0 -1
    outer loop
      vertex 39 -24.3 0.799999
      vertex 34.8239 -24.6827 0.799999
      vertex 34.8569 -24.5903 0.799999
    endloop
  endfacet
  facet normal 0 0 -1
    outer loop
      vertex 39 -24.3 0.799999
      vertex 34.7819 -24.7714 0.799999
      vertex 34.8239 -24.6827 0.799999
    endloop
  endfacet
  facet normal 0 0 -1
    outer loop
      vertex 39 -24.3 0.799999
      vertex 34.7315 -24.8556 0.799999
      vertex 34.7819 -24.7714 0.799999
    endloop
  endfacet
  facet normal 0 0 -1
    outer loop
      vertex 39 -24.3 0.799999
      vertex 34.673 -24.9344 0.799999
      vertex 34.7315 -24.8556 0.799999
    endloop
  endfacet
  facet normal 0 0 -1
    outer loop
      vertex 39 -30.05 0.799999
      vertex 34.6071 -25.0071 0.799999
      vertex 34.673 -24.9344 0.799999
    endloop
  endfacet
  facet normal 0 0 -1
    outer loop
      vertex 39 -30.05 0.799999
      vertex 34.5344 -25.073 0.799999
      vertex 34.6071 -25.0071 0.799999
    endloop
  endfacet
  facet normal 0 0 -1
    outer loop
      vertex 39 -30.05 0.799999
      vertex 34.4556 -25.1315 0.799999
      vertex 34.5344 -25.073 0.799999
    endloop
  endfacet
  facet normal 0 0 -1
    outer loop
      vertex 39 -30.05 0.799999
      vertex 34.3714 -25.1819 0.799999
      vertex 34.4556 -25.1315 0.799999
    endloop
  endfacet
  facet normal 0 0 -1
    outer loop
      vertex 39 -30.05 0.799999
      vertex 34.2827 -25.2239 0.799999
      vertex 34.3714 -25.1819 0.799999
    endloop
  endfacet
  facet normal 0 0 -1
    outer loop
      vertex 39 -30.05 0.799999
      vertex 34.1903 -25.2569 0.799999
      vertex 34.2827 -25.2239 0.799999
    endloop
  endfacet
  facet normal 0 0 -1
    outer loop
      vertex 39 -30.05 0.799999
      vertex 34.0951 -25.2808 0.799999
      vertex 34.1903 -25.2569 0.799999
    endloop
  endfacet
  facet normal 0 0 -1
    outer loop
      vertex 39 -30.05 0.799999
      vertex 33.998 -25.2952 0.799999
      vertex 34.0951 -25.2808 0.799999
    endloop
  endfacet
  facet normal 0 0 -1
    outer loop
      vertex 39 -30.05 0.799999
      vertex 33.9 -25.3 0.799999
      vertex 33.998 -25.2952 0.799999
    endloop
  endfacet
  facet normal 0 0 -1
    outer loop
      vertex 5 -30.05 0.799999
      vertex 33.9 -25.3 0.799999
      vertex 39 -30.05 0.799999
    endloop
  endfacet
  facet normal -0 0 -1
    outer loop
      vertex 33.9 -25.3 0.799999
      vertex 5 -30.05 0.799999
      vertex 5 -25.3 0.799999
    endloop
  endfacet
  facet normal 0 1 -0
    outer loop
      vertex 39 -24.3 0.799999
      vertex 34.9 -24.3 1.6
      vertex 39 -24.3 1.6
    endloop
  endfacet
  facet normal 0 1 0
    outer loop
      vertex 34.9 -24.3 1.6
      vertex 39 -24.3 0.799999
      vertex 34.9 -24.3 0.799999
    endloop
  endfacet
  facet normal 0 -1 0
    outer loop
      vertex 5 -71 2
      vertex 14.5 -71 9.99
      vertex 5 -71 9.99
    endloop
  endfacet
  facet normal 0 -1 -0
    outer loop
      vertex 14.5 -71 9.99
      vertex 5 -71 2
      vertex 14.5 -71 2
    endloop
  endfacet
  facet normal 0 -1 0
    outer loop
      vertex 16 -71 2
      vertex 28 -71 9.99
      vertex 16 -71 9.99
    endloop
  endfacet
  facet normal 0 -1 -0
    outer loop
      vertex 28 -71 9.99
      vertex 16 -71 2
      vertex 28 -71 2
    endloop
  endfacet
  facet normal 0 -1 0
    outer loop
      vertex 29.5 -71 2
      vertex 39 -71 9.99
      vertex 29.5 -71 9.99
    endloop
  endfacet
  facet normal 0 -1 -0
    outer loop
      vertex 39 -71 9.99
      vertex 29.5 -71 2
      vertex 39 -71 2
    endloop
  endfacet
  facet normal -0 0 1
    outer loop
      vertex 5 -69.6 9.99
      vertex 14.5 -71 9.99
      vertex 14.5 -69.6 9.99
    endloop
  endfacet
  facet normal 0 0 1
    outer loop
      vertex 14.5 -71 9.99
      vertex 5 -69.6 9.99
      vertex 5 -71 9.99
    endloop
  endfacet
  facet normal -0 0 1
    outer loop
      vertex 16 -69.6 9.99
      vertex 28 -71 9.99
      vertex 28 -69.6 9.99
    endloop
  endfacet
  facet normal 0 0 1
    outer loop
      vertex 28 -71 9.99
      vertex 16 -69.6 9.99
      vertex 16 -71 9.99
    endloop
  endfacet
  facet normal -0 0 1
    outer loop
      vertex 29.5 -69.6 9.99
      vertex 39 -71 9.99
      vertex 39 -69.6 9.99
    endloop
  endfacet
  facet normal 0 0 1
    outer loop
      vertex 39 -71 9.99
      vertex 29.5 -69.6 9.99
      vertex 29.5 -71 9.99
    endloop
  endfacet
  facet normal 0 1 -0
    outer loop
      vertex 14.5 -69.6 2
      vertex 5 -69.6 9.99
      vertex 14.5 -69.6 9.99
    endloop
  endfacet
  facet normal 0 1 0
    outer loop
      vertex 5 -69.6 9.99
      vertex 14.5 -69.6 2
      vertex 5 -69.6 2
    endloop
  endfacet
  facet normal 0 1 -0
    outer loop
      vertex 28 -69.6 2
      vertex 16 -69.6 9.99
      vertex 28 -69.6 9.99
    endloop
  endfacet
  facet normal 0 1 0
    outer loop
      vertex 16 -69.6 9.99
      vertex 28 -69.6 2
      vertex 16 -69.6 2
    endloop
  endfacet
  facet normal 0 1 -0
    outer loop
      vertex 39 -69.6 2
      vertex 29.5 -69.6 9.99
      vertex 39 -69.6 9.99
    endloop
  endfacet
  facet normal 0 1 0
    outer loop
      vertex 29.5 -69.6 9.99
      vertex 39 -69.6 2
      vertex 29.5 -69.6 2
    endloop
  endfacet
  facet normal 0 1 -0
    outer loop
      vertex 28 -71 6.9
      vertex 16 -71 8.5
      vertex 28 -71 8.5
    endloop
  endfacet
  facet normal 0 1 0
    outer loop
      vertex 16 -71 8.5
      vertex 28 -71 6.9
      vertex 16 -71 6.9
    endloop
  endfacet
  facet normal 0 -1 0
    outer loop
      vertex 16 -71.8 7.7
      vertex 28 -71.8 7.71
      vertex 16 -71.8 7.71
    endloop
  endfacet
  facet normal 0 -1 -0
    outer loop
      vertex 28 -71.8 7.71
      vertex 16 -71.8 7.7
      vertex 28 -71.8 7.7
    endloop
  endfacet
  facet normal 0 -0.707107 0.707107
    outer loop
      vertex 16 -71.8 7.71
      vertex 28 -71.01 8.5
      vertex 16 -71.01 8.5
    endloop
  endfacet
  facet normal 0 -0.707107 0.707107
    outer loop
      vertex 28 -71.01 8.5
      vertex 16 -71.8 7.71
      vertex 28 -71.8 7.71
    endloop
  endfacet
  facet normal -0 0 1
    outer loop
      vertex 16 -71 8.5
      vertex 28 -71.01 8.5
      vertex 28 -71 8.5
    endloop
  endfacet
  facet normal 0 0 1
    outer loop
      vertex 28 -71.01 8.5
      vertex 16 -71 8.5
      vertex 16 -71.01 8.5
    endloop
  endfacet
  facet normal 0 0 -1
    outer loop
      vertex 16 -71.01 6.9
      vertex 28 -71 6.9
      vertex 28 -71.01 6.9
    endloop
  endfacet
  facet normal -0 0 -1
    outer loop
      vertex 28 -71 6.9
      vertex 16 -71.01 6.9
      vertex 16 -71 6.9
    endloop
  endfacet
  facet normal -1 0 0
    outer loop
      vertex 16 -71.01 6.9
      vertex 16 -71 8.5
      vertex 16 -71 6.9
    endloop
  endfacet
  facet normal -1 0 0
    outer loop
      vertex 16 -71.01 6.9
      vertex 16 -71.01 8.5
      vertex 16 -71 8.5
    endloop
  endfacet
  facet normal -1 0 0
    outer loop
      vertex 16 -71.8 7.7
      vertex 16 -71.01 8.5
      vertex 16 -71.01 6.9
    endloop
  endfacet
  facet normal -1 0 0
    outer loop
      vertex 16 -71.01 8.5
      vertex 16 -71.8 7.7
      vertex 16 -71.8 7.71
    endloop
  endfacet
  facet normal -1 0 0
    outer loop
      vertex 16 -71 2
      vertex 16 -69.6 9.99
      vertex 16 -69.6 2
    endloop
  endfacet
  facet normal -1 -0 0
    outer loop
      vertex 16 -69.6 9.99
      vertex 16 -71 2
      vertex 16 -71 9.99
    endloop
  endfacet
  facet normal 0 -0.71154 -0.702646
    outer loop
      vertex 16 -71.01 6.9
      vertex 28 -71.8 7.7
      vertex 16 -71.8 7.7
    endloop
  endfacet
  facet normal 0 -0.71154 -0.702646
    outer loop
      vertex 28 -71.8 7.7
      vertex 16 -71.01 6.9
      vertex 28 -71.01 6.9
    endloop
  endfacet
  facet normal 1 -0 0
    outer loop
      vertex 28 -71.01 8.5
      vertex 28 -71 6.9
      vertex 28 -71 8.5
    endloop
  endfacet
  facet normal 1 0 0
    outer loop
      vertex 28 -71.01 8.5
      vertex 28 -71.01 6.9
      vertex 28 -71 6.9
    endloop
  endfacet
  facet normal 1 -0 0
    outer loop
      vertex 28 -71.8 7.71
      vertex 28 -71.01 6.9
      vertex 28 -71.01 8.5
    endloop
  endfacet
  facet normal 1 0 0
    outer loop
      vertex 28 -71.01 6.9
      vertex 28 -71.8 7.71
      vertex 28 -71.8 7.7
    endloop
  endfacet
  facet normal 1 -0 0
    outer loop
      vertex 28 -71 9.99
      vertex 28 -69.6 2
      vertex 28 -69.6 9.99
    endloop
  endfacet
  facet normal 1 0 0
    outer loop
      vertex 28 -69.6 2
      vertex 28 -71 9.99
      vertex 28 -71 2
    endloop
  endfacet
  facet normal -0 0 1
    outer loop
      vertex 5 -71 2
      vertex 14.5 -73.85 2
      vertex 14.5 -71 2
    endloop
  endfacet
  facet normal 0 0 1
    outer loop
      vertex 14.5 -73.85 2
      vertex 5 -71 2
      vertex 5 -73.85 2
    endloop
  endfacet
  facet normal 0 0 1
    outer loop
      vertex 14.5 -69.6 2
      vertex 16 -69.6 2
      vertex 16 -68.1 2
    endloop
  endfacet
  facet normal 0 0 1
    outer loop
      vertex 16 -69.6 2
      vertex 14.5 -69.6 2
      vertex 16 -71 2
    endloop
  endfacet
  facet normal 0 0 1
    outer loop
      vertex 14.5 -69.6 2
      vertex 16 -68.1 2
      vertex 14.5 -68.1 2
    endloop
  endfacet
  facet normal 0 0 1
    outer loop
      vertex 16 -71 2
      vertex 14.5 -69.6 2
      vertex 14.5 -71 2
    endloop
  endfacet
  facet normal 0 0 1
    outer loop
      vertex 16 -71 2
      vertex 14.5 -71 2
      vertex 16 -73.85 2
    endloop
  endfacet
  facet normal 0 0 1
    outer loop
      vertex 16 -73.85 2
      vertex 14.5 -71 2
      vertex 14.5 -73.85 2
    endloop
  endfacet
  facet normal -0 0 1
    outer loop
      vertex 16 -71 2
      vertex 28 -73.85 2
      vertex 28 -71 2
    endloop
  endfacet
  facet normal 0 0 1
    outer loop
      vertex 28 -73.85 2
      vertex 16 -71 2
      vertex 16 -73.85 2
    endloop
  endfacet
  facet normal 0 0 1
    outer loop
      vertex 28 -69.6 2
      vertex 29.5 -69.6 2
      vertex 29.5 -68.1 2
    endloop
  endfacet
  facet normal 0 0 1
    outer loop
      vertex 29.5 -69.6 2
      vertex 28 -69.6 2
      vertex 29.5 -71 2
    endloop
  endfacet
  facet normal 0 0 1
    outer loop
      vertex 28 -69.6 2
      vertex 29.5 -68.1 2
      vertex 28 -68.1 2
    endloop
  endfacet
  facet normal 0 0 1
    outer loop
      vertex 29.5 -71 2
      vertex 28 -69.6 2
      vertex 28 -71 2
    endloop
  endfacet
  facet normal 0 0 1
    outer loop
      vertex 29.5 -71 2
      vertex 28 -71 2
      vertex 29.5 -73.85 2
    endloop
  endfacet
  facet normal 0 0 1
    outer loop
      vertex 29.5 -73.85 2
      vertex 28 -71 2
      vertex 28 -73.85 2
    endloop
  endfacet
  facet normal -0 0 1
    outer loop
      vertex 29.5 -71 2
      vertex 39 -73.85 2
      vertex 39 -71 2
    endloop
  endfacet
  facet normal 0 0 1
    outer loop
      vertex 39 -73.85 2
      vertex 29.5 -71 2
      vertex 29.5 -73.85 2
    endloop
  endfacet
  facet normal -0 0 1
    outer loop
      vertex 5 -68.1 2
      vertex 14.5 -69.6 2
      vertex 14.5 -68.1 2
    endloop
  endfacet
  facet normal 0 0 1
    outer loop
      vertex 14.5 -69.6 2
      vertex 5 -68.1 2
      vertex 5 -69.6 2
    endloop
  endfacet
  facet normal -0 0 1
    outer loop
      vertex 16 -68.1 2
      vertex 28 -69.6 2
      vertex 28 -68.1 2
    endloop
  endfacet
  facet normal 0 0 1
    outer loop
      vertex 28 -69.6 2
      vertex 16 -68.1 2
      vertex 16 -69.6 2
    endloop
  endfacet
  facet normal -0 0 1
    outer loop
      vertex 29.5 -68.1 2
      vertex 39 -69.6 2
      vertex 39 -68.1 2
    endloop
  endfacet
  facet normal 0 0 1
    outer loop
      vertex 39 -69.6 2
      vertex 29.5 -68.1 2
      vertex 29.5 -69.6 2
    endloop
  endfacet
  facet normal 0 -1 0
    outer loop
      vertex 5 -73.85 0
      vertex 14.5 -73.85 2
      vertex 5 -73.85 2
    endloop
  endfacet
  facet normal 0 -1 -0
    outer loop
      vertex 14.5 -73.85 2
      vertex 5 -73.85 0
      vertex 16 -73.85 2
    endloop
  endfacet
  facet normal 0 -1 -0
    outer loop
      vertex 16 -73.85 2
      vertex 5 -73.85 0
      vertex 28 -73.85 2
    endloop
  endfacet
  facet normal 0 -1 0
    outer loop
      vertex 39 -73.85 0
      vertex 28 -73.85 2
      vertex 5 -73.85 0
    endloop
  endfacet
  facet normal 0 -1 0
    outer loop
      vertex 28 -73.85 2
      vertex 39 -73.85 0
      vertex 29.5 -73.85 2
    endloop
  endfacet
  facet normal 0 -1 0
    outer loop
      vertex 29.5 -73.85 2
      vertex 39 -73.85 0
      vertex 39 -73.85 2
    endloop
  endfacet
  facet normal 0 0 -1
    outer loop
      vertex 5 -73.85 0
      vertex 39 -68.1 0
      vertex 39 -73.85 0
    endloop
  endfacet
  facet normal -0 0 -1
    outer loop
      vertex 39 -68.1 0
      vertex 5 -73.85 0
      vertex 5 -68.1 0
    endloop
  endfacet
  facet normal 1 -0 0
    outer loop
      vertex 14.5 -71 9.99
      vertex 14.5 -69.6 2
      vertex 14.5 -69.6 9.99
    endloop
  endfacet
  facet normal 1 0 0
    outer loop
      vertex 14.5 -69.6 2
      vertex 14.5 -71 9.99
      vertex 14.5 -71 2
    endloop
  endfacet
  facet normal -1 0 0
    outer loop
      vertex 29.5 -71 2
      vertex 29.5 -69.6 9.99
      vertex 29.5 -69.6 2
    endloop
  endfacet
  facet normal -1 -0 0
    outer loop
      vertex 29.5 -69.6 9.99
      vertex 29.5 -71 2
      vertex 29.5 -71 9.99
    endloop
  endfacet
  facet normal -1 0 0
    outer loop
      vertex 5 -68.1 0
      vertex 5 -69.6 2
      vertex 5 -68.1 2
    endloop
  endfacet
  facet normal -1 0 0
    outer loop
      vertex 5 -69.6 2
      vertex 5 -71 2
      vertex 5 -69.6 9.99
    endloop
  endfacet
  facet normal -1 0 0
    outer loop
      vertex 5 -68.1 0
      vertex 5 -71 2
      vertex 5 -69.6 2
    endloop
  endfacet
  facet normal -1 0 0
    outer loop
      vertex 5 -73.85 0
      vertex 5 -71 2
      vertex 5 -68.1 0
    endloop
  endfacet
  facet normal -1 -0 0
    outer loop
      vertex 5 -71 2
      vertex 5 -73.85 0
      vertex 5 -73.85 2
    endloop
  endfacet
  facet normal -1 -0 0
    outer loop
      vertex 5 -69.6 9.99
      vertex 5 -71 2
      vertex 5 -71 9.99
    endloop
  endfacet
  facet normal 1 0 0
    outer loop
      vertex 39 -69.6 9.99
      vertex 39 -71 9.99
      vertex 39 -69.6 2
    endloop
  endfacet
  facet normal 1 -0 0
    outer loop
      vertex 39 -69.6 2
      vertex 39 -68.1 0
      vertex 39 -68.1 2
    endloop
  endfacet
  facet normal 1 0 0
    outer loop
      vertex 39 -71 2
      vertex 39 -69.6 2
      vertex 39 -71 9.99
    endloop
  endfacet
  facet normal 1 -0 0
    outer loop
      vertex 39 -71 2
      vertex 39 -68.1 0
      vertex 39 -69.6 2
    endloop
  endfacet
  facet normal 1 0 0
    outer loop
      vertex 39 -73.85 0
      vertex 39 -71 2
      vertex 39 -73.85 2
    endloop
  endfacet
  facet normal 1 0 0
    outer loop
      vertex 39 -71 2
      vertex 39 -73.85 0
      vertex 39 -68.1 0
    endloop
  endfacet
  facet normal 0 1 -0
    outer loop
      vertex 39 -68.1 0
      vertex 29.5 -68.1 2
      vertex 39 -68.1 2
    endloop
  endfacet
  facet normal 0 1 0
    outer loop
      vertex 29.5 -68.1 2
      vertex 39 -68.1 0
      vertex 28 -68.1 2
    endloop
  endfacet
  facet normal 0 1 0
    outer loop
      vertex 28 -68.1 2
      vertex 39 -68.1 0
      vertex 16 -68.1 2
    endloop
  endfacet
  facet normal 0 1 0
    outer loop
      vertex 5 -68.1 0
      vertex 16 -68.1 2
      vertex 39 -68.1 0
    endloop
  endfacet
  facet normal 0 1 0
    outer loop
      vertex 16 -68.1 2
      vertex 5 -68.1 0
      vertex 14.5 -68.1 2
    endloop
  endfacet
  facet normal 0 1 0
    outer loop
      vertex 14.5 -68.1 2
      vertex 5 -68.1 0
      vertex 5 -68.1 2
    endloop
  endfacet
endsolid OpenSCAD_Model
