solid OpenSCAD_Model
  facet normal 0 -1 0
    outer loop
      vertex 5 -27.2 2
      vertex 14.5 -27.2 9.99
      vertex 5 -27.2 9.99
    endloop
  endfacet
  facet normal 0 -1 -0
    outer loop
      vertex 14.5 -27.2 9.99
      vertex 5 -27.2 2
      vertex 14.5 -27.2 2
    endloop
  endfacet
  facet normal 0 -1 0
    outer loop
      vertex 16 -27.2 2
      vertex 28 -27.2 9.99
      vertex 16 -27.2 9.99
    endloop
  endfacet
  facet normal 0 -1 -0
    outer loop
      vertex 28 -27.2 9.99
      vertex 16 -27.2 2
      vertex 28 -27.2 2
    endloop
  endfacet
  facet normal 0 -1 0
    outer loop
      vertex 29.5 -27.2 2
      vertex 39 -27.2 9.99
      vertex 29.5 -27.2 9.99
    endloop
  endfacet
  facet normal 0 -1 -0
    outer loop
      vertex 39 -27.2 9.99
      vertex 29.5 -27.2 2
      vertex 39 -27.2 2
    endloop
  endfacet
  facet normal -0 0 1
    outer loop
      vertex 5 -25.8 9.99
      vertex 14.5 -27.2 9.99
      vertex 14.5 -25.8 9.99
    endloop
  endfacet
  facet normal 0 0 1
    outer loop
      vertex 14.5 -27.2 9.99
      vertex 5 -25.8 9.99
      vertex 5 -27.2 9.99
    endloop
  endfacet
  facet normal -0 0 1
    outer loop
      vertex 16 -25.8 9.99
      vertex 28 -27.2 9.99
      vertex 28 -25.8 9.99
    endloop
  endfacet
  facet normal 0 0 1
    outer loop
      vertex 28 -27.2 9.99
      vertex 16 -25.8 9.99
      vertex 16 -27.2 9.99
    endloop
  endfacet
  facet normal -0 0 1
    outer loop
      vertex 29.5 -25.8 9.99
      vertex 39 -27.2 9.99
      vertex 39 -25.8 9.99
    endloop
  endfacet
  facet normal 0 0 1
    outer loop
      vertex 39 -27.2 9.99
      vertex 29.5 -25.8 9.99
      vertex 29.5 -27.2 9.99
    endloop
  endfacet
  facet normal 0 1 -0
    outer loop
      vertex 14.5 -25.8 2
      vertex 5 -25.8 9.99
      vertex 14.5 -25.8 9.99
    endloop
  endfacet
  facet normal 0 1 0
    outer loop
      vertex 5 -25.8 9.99
      vertex 14.5 -25.8 2
      vertex 5 -25.8 2
    endloop
  endfacet
  facet normal 0 1 -0
    outer loop
      vertex 28 -25.8 2
      vertex 16 -25.8 9.99
      vertex 28 -25.8 9.99
    endloop
  endfacet
  facet normal 0 1 0
    outer loop
      vertex 16 -25.8 9.99
      vertex 28 -25.8 2
      vertex 16 -25.8 2
    endloop
  endfacet
  facet normal 0 1 -0
    outer loop
      vertex 39 -25.8 2
      vertex 29.5 -25.8 9.99
      vertex 39 -25.8 9.99
    endloop
  endfacet
  facet normal 0 1 0
    outer loop
      vertex 29.5 -25.8 9.99
      vertex 39 -25.8 2
      vertex 29.5 -25.8 2
    endloop
  endfacet
  facet normal 0 1 -0
    outer loop
      vertex 28 -27.2 6.9
      vertex 16 -27.2 8.5
      vertex 28 -27.2 8.5
    endloop
  endfacet
  facet normal 0 1 0
    outer loop
      vertex 16 -27.2 8.5
      vertex 28 -27.2 6.9
      vertex 16 -27.2 6.9
    endloop
  endfacet
  facet normal 0 -0.707107 0.707107
    outer loop
      vertex 16 -28 7.71
      vertex 28 -27.21 8.5
      vertex 16 -27.21 8.5
    endloop
  endfacet
  facet normal 0 -0.707107 0.707107
    outer loop
      vertex 28 -27.21 8.5
      vertex 16 -28 7.71
      vertex 28 -28 7.71
    endloop
  endfacet
  facet normal -0 0 1
    outer loop
      vertex 16 -27.2 8.5
      vertex 28 -27.21 8.5
      vertex 28 -27.2 8.5
    endloop
  endfacet
  facet normal 0 0 1
    outer loop
      vertex 28 -27.21 8.5
      vertex 16 -27.2 8.5
      vertex 16 -27.21 8.5
    endloop
  endfacet
  facet normal 0 0 -1
    outer loop
      vertex 16 -27.21 6.9
      vertex 28 -27.2 6.9
      vertex 28 -27.21 6.9
    endloop
  endfacet
  facet normal -0 0 -1
    outer loop
      vertex 28 -27.2 6.9
      vertex 16 -27.21 6.9
      vertex 16 -27.2 6.9
    endloop
  endfacet
  facet normal -1 0 0
    outer loop
      vertex 16 -27.21 6.9
      vertex 16 -27.2 8.5
      vertex 16 -27.2 6.9
    endloop
  endfacet
  facet normal -1 0 0
    outer loop
      vertex 16 -27.21 6.9
      vertex 16 -27.21 8.5
      vertex 16 -27.2 8.5
    endloop
  endfacet
  facet normal -1 0 0
    outer loop
      vertex 16 -28 7.7
      vertex 16 -27.21 8.5
      vertex 16 -27.21 6.9
    endloop
  endfacet
  facet normal -1 0 0
    outer loop
      vertex 16 -27.21 8.5
      vertex 16 -28 7.7
      vertex 16 -28 7.71
    endloop
  endfacet
  facet normal -1 0 0
    outer loop
      vertex 16 -27.2 2
      vertex 16 -25.8 9.99
      vertex 16 -25.8 2
    endloop
  endfacet
  facet normal -1 -0 0
    outer loop
      vertex 16 -25.8 9.99
      vertex 16 -27.2 2
      vertex 16 -27.2 9.99
    endloop
  endfacet
  facet normal 0 -0.71154 -0.702646
    outer loop
      vertex 16 -27.21 6.9
      vertex 28 -28 7.7
      vertex 16 -28 7.7
    endloop
  endfacet
  facet normal 0 -0.71154 -0.702646
    outer loop
      vertex 28 -28 7.7
      vertex 16 -27.21 6.9
      vertex 28 -27.21 6.9
    endloop
  endfacet
  facet normal 1 -0 0
    outer loop
      vertex 28 -27.21 8.5
      vertex 28 -27.2 6.9
      vertex 28 -27.2 8.5
    endloop
  endfacet
  facet normal 1 0 0
    outer loop
      vertex 28 -27.21 8.5
      vertex 28 -27.21 6.9
      vertex 28 -27.2 6.9
    endloop
  endfacet
  facet normal 1 -0 0
    outer loop
      vertex 28 -28 7.71
      vertex 28 -27.21 6.9
      vertex 28 -27.21 8.5
    endloop
  endfacet
  facet normal 1 0 0
    outer loop
      vertex 28 -27.21 6.9
      vertex 28 -28 7.71
      vertex 28 -28 7.7
    endloop
  endfacet
  facet normal 1 -0 0
    outer loop
      vertex 28 -27.2 9.99
      vertex 28 -25.8 2
      vertex 28 -25.8 9.99
    endloop
  endfacet
  facet normal 1 0 0
    outer loop
      vertex 28 -25.8 2
      vertex 28 -27.2 9.99
      vertex 28 -27.2 2
    endloop
  endfacet
  facet normal 0 -1 0
    outer loop
      vertex 16 -28 7.7
      vertex 28 -28 7.71
      vertex 16 -28 7.71
    endloop
  endfacet
  facet normal 0 -1 -0
    outer loop
      vertex 28 -28 7.71
      vertex 16 -28 7.7
      vertex 28 -28 7.7
    endloop
  endfacet
  facet normal -0 0 1
    outer loop
      vertex 5 -27.2 2
      vertex 14.5 -30.05 2
      vertex 14.5 -27.2 2
    endloop
  endfacet
  facet normal 0 0 1
    outer loop
      vertex 14.5 -30.05 2
      vertex 5 -27.2 2
      vertex 5 -30.05 2
    endloop
  endfacet
  facet normal 0 0 1
    outer loop
      vertex 14.5 -25.8 2
      vertex 16 -25.8 2
      vertex 16 -24.3 2
    endloop
  endfacet
  facet normal 0 0 1
    outer loop
      vertex 16 -25.8 2
      vertex 14.5 -25.8 2
      vertex 16 -27.2 2
    endloop
  endfacet
  facet normal 0 0 1
    outer loop
      vertex 14.5 -25.8 2
      vertex 16 -24.3 2
      vertex 14.5 -24.3 2
    endloop
  endfacet
  facet normal 0 0 1
    outer loop
      vertex 16 -27.2 2
      vertex 14.5 -25.8 2
      vertex 14.5 -27.2 2
    endloop
  endfacet
  facet normal 0 0 1
    outer loop
      vertex 16 -27.2 2
      vertex 14.5 -27.2 2
      vertex 16 -30.05 2
    endloop
  endfacet
  facet normal 0 0 1
    outer loop
      vertex 16 -30.05 2
      vertex 14.5 -27.2 2
      vertex 14.5 -30.05 2
    endloop
  endfacet
  facet normal -0 0 1
    outer loop
      vertex 16 -27.2 2
      vertex 28 -30.05 2
      vertex 28 -27.2 2
    endloop
  endfacet
  facet normal 0 0 1
    outer loop
      vertex 28 -30.05 2
      vertex 16 -27.2 2
      vertex 16 -30.05 2
    endloop
  endfacet
  facet normal 0 0 1
    outer loop
      vertex 28 -25.8 2
      vertex 29.5 -25.8 2
      vertex 29.5 -24.3 2
    endloop
  endfacet
  facet normal 0 0 1
    outer loop
      vertex 29.5 -25.8 2
      vertex 28 -25.8 2
      vertex 29.5 -27.2 2
    endloop
  endfacet
  facet normal 0 0 1
    outer loop
      vertex 28 -25.8 2
      vertex 29.5 -24.3 2
      vertex 28 -24.3 2
    endloop
  endfacet
  facet normal 0 0 1
    outer loop
      vertex 29.5 -27.2 2
      vertex 28 -25.8 2
      vertex 28 -27.2 2
    endloop
  endfacet
  facet normal 0 0 1
    outer loop
      vertex 29.5 -27.2 2
      vertex 28 -27.2 2
      vertex 29.5 -30.05 2
    endloop
  endfacet
  facet normal 0 0 1
    outer loop
      vertex 29.5 -30.05 2
      vertex 28 -27.2 2
      vertex 28 -30.05 2
    endloop
  endfacet
  facet normal -0 0 1
    outer loop
      vertex 29.5 -27.2 2
      vertex 39 -30.05 2
      vertex 39 -27.2 2
    endloop
  endfacet
  facet normal 0 0 1
    outer loop
      vertex 39 -30.05 2
      vertex 29.5 -27.2 2
      vertex 29.5 -30.05 2
    endloop
  endfacet
  facet normal -0 0 1
    outer loop
      vertex 5 -24.3 2
      vertex 14.5 -25.8 2
      vertex 14.5 -24.3 2
    endloop
  endfacet
  facet normal 0 0 1
    outer loop
      vertex 14.5 -25.8 2
      vertex 5 -24.3 2
      vertex 5 -25.8 2
    endloop
  endfacet
  facet normal -0 0 1
    outer loop
      vertex 16 -24.3 2
      vertex 28 -25.8 2
      vertex 28 -24.3 2
    endloop
  endfacet
  facet normal 0 0 1
    outer loop
      vertex 28 -25.8 2
      vertex 16 -24.3 2
      vertex 16 -25.8 2
    endloop
  endfacet
  facet normal -0 0 1
    outer loop
      vertex 29.5 -24.3 2
      vertex 39 -25.8 2
      vertex 39 -24.3 2
    endloop
  endfacet
  facet normal 0 0 1
    outer loop
      vertex 39 -25.8 2
      vertex 29.5 -24.3 2
      vertex 29.5 -25.8 2
    endloop
  endfacet
  facet normal 0 -1 0
    outer loop
      vertex 5 -30.05 0
      vertex 14.5 -30.05 2
      vertex 5 -30.05 2
    endloop
  endfacet
  facet normal 0 -1 -0
    outer loop
      vertex 14.5 -30.05 2
      vertex 5 -30.05 0
      vertex 16 -30.05 2
    endloop
  endfacet
  facet normal 0 -1 -0
    outer loop
      vertex 16 -30.05 2
      vertex 5 -30.05 0
      vertex 28 -30.05 2
    endloop
  endfacet
  facet normal 0 -1 0
    outer loop
      vertex 39 -30.05 0
      vertex 28 -30.05 2
      vertex 5 -30.05 0
    endloop
  endfacet
  facet normal 0 -1 0
    outer loop
      vertex 28 -30.05 2
      vertex 39 -30.05 0
      vertex 29.5 -30.05 2
    endloop
  endfacet
  facet normal 0 -1 0
    outer loop
      vertex 29.5 -30.05 2
      vertex 39 -30.05 0
      vertex 39 -30.05 2
    endloop
  endfacet
  facet normal 0 0 -1
    outer loop
      vertex 5 -30.05 0
      vertex 39 -24.3 0
      vertex 39 -30.05 0
    endloop
  endfacet
  facet normal -0 0 -1
    outer loop
      vertex 39 -24.3 0
      vertex 5 -30.05 0
      vertex 5 -24.3 0
    endloop
  endfacet
  facet normal 1 -0 0
    outer loop
      vertex 14.5 -27.2 9.99
      vertex 14.5 -25.8 2
      vertex 14.5 -25.8 9.99
    endloop
  endfacet
  facet normal 1 0 0
    outer loop
      vertex 14.5 -25.8 2
      vertex 14.5 -27.2 9.99
      vertex 14.5 -27.2 2
    endloop
  endfacet
  facet normal -1 0 0
    outer loop
      vertex 29.5 -27.2 2
      vertex 29.5 -25.8 9.99
      vertex 29.5 -25.8 2
    endloop
  endfacet
  facet normal -1 -0 0
    outer loop
      vertex 29.5 -25.8 9.99
      vertex 29.5 -27.2 2
      vertex 29.5 -27.2 9.99
    endloop
  endfacet
  facet normal -1 0 0
    outer loop
      vertex 5 -24.3 0
      vertex 5 -25.8 2
      vertex 5 -24.3 2
    endloop
  endfacet
  facet normal -1 0 0
    outer loop
      vertex 5 -25.8 2
      vertex 5 -27.2 2
      vertex 5 -25.8 9.99
    endloop
  endfacet
  facet normal -1 0 0
    outer loop
      vertex 5 -24.3 0
      vertex 5 -27.2 2
      vertex 5 -25.8 2
    endloop
  endfacet
  facet normal -1 0 0
    outer loop
      vertex 5 -30.05 0
      vertex 5 -27.2 2
      vertex 5 -24.3 0
    endloop
  endfacet
  facet normal -1 -0 0
    outer loop
      vertex 5 -27.2 2
      vertex 5 -30.05 0
      vertex 5 -30.05 2
    endloop
  endfacet
  facet normal -1 -0 0
    outer loop
      vertex 5 -25.8 9.99
      vertex 5 -27.2 2
      vertex 5 -27.2 9.99
    endloop
  endfacet
  facet normal 1 0 0
    outer loop
      vertex 39 -25.8 9.99
      vertex 39 -27.2 9.99
      vertex 39 -25.8 2
    endloop
  endfacet
  facet normal 1 -0 0
    outer loop
      vertex 39 -25.8 2
      vertex 39 -24.3 0
      vertex 39 -24.3 2
    endloop
  endfacet
  facet normal 1 0 0
    outer loop
      vertex 39 -27.2 2
      vertex 39 -25.8 2
      vertex 39 -27.2 9.99
    endloop
  endfacet
  facet normal 1 -0 0
    outer loop
      vertex 39 -27.2 2
      vertex 39 -24.3 0
      vertex 39 -25.8 2
    endloop
  endfacet
  facet normal 1 0 0
    outer loop
      vertex 39 -30.05 0
      vertex 39 -27.2 2
      vertex 39 -30.05 2
    endloop
  endfacet
  facet normal 1 0 0
    outer loop
      vertex 39 -27.2 2
      vertex 39 -30.05 0
      vertex 39 -24.3 0
    endloop
  endfacet
  facet normal 0 1 -0
    outer loop
      vertex 39 -24.3 0
      vertex 29.5 -24.3 2
      vertex 39 -24.3 2
    endloop
  endfacet
  facet normal 0 1 0
    outer loop
      vertex 29.5 -24.3 2
      vertex 39 -24.3 0
      vertex 28 -24.3 2
    endloop
  endfacet
  facet normal 0 1 0
    outer loop
      vertex 28 -24.3 2
      vertex 39 -24.3 0
      vertex 16 -24.3 2
    endloop
  endfacet
  facet normal 0 1 0
    outer loop
      vertex 5 -24.3 0
      vertex 16 -24.3 2
      vertex 39 -24.3 0
    endloop
  endfacet
  facet normal 0 1 0
    outer loop
      vertex 16 -24.3 2
      vertex 5 -24.3 0
      vertex 14.5 -24.3 2
    endloop
  endfacet
  facet normal 0 1 0
    outer loop
      vertex 14.5 -24.3 2
      vertex 5 -24.3 0
      vertex 5 -24.3 2
    endloop
  endfacet
endsolid OpenSCAD_Model
